<svg width="47" height="35" viewBox="0 0 47 35" version="1.1" xmlns="http://www.w3.org/2000/svg" xmlns:xlink="http://www.w3.org/1999/xlink">
<title>&#226;&#128;&#157;</title>
<desc>Created using Figma</desc>
<g id="Canvas" transform="translate(-332 -3136)">
<g id="&#226;&#128;&#157;">
<use xlink:href="#path0_fill" transform="matrix(0.90551 0.424324 -0.424324 0.90551 335.859 3130)" fill="#FFFFFF"/>
</g>
</g>
<defs>
<path id="path0_fill" d="M 8.96475 25.4C 8.96475 26.84 10.1168 27.56 11.1248 27.56C 12.4207 27.56 16.0208 25.544 18.6128 22.952C 21.2047 20.36 22.5007 16.04 22.5007 7.976L 22.5007 4.376C 22.5007 1.784 20.3407 -0.375999 17.7487 -0.375999C 15.1567 -0.375999 12.9967 1.784 12.9967 4.376L 12.9967 7.4C 12.9967 10.28 14.7247 11.864 16.8848 12.44C 17.3167 17.48 15.3008 20.648 10.1168 23.528C 9.39675 23.96 8.96475 24.68 8.96475 25.4ZM 34.8847 25.4C 34.8847 26.84 36.0367 27.56 37.0448 27.56C 38.3408 27.56 41.9407 25.544 44.5327 22.952C 47.1248 20.36 48.4208 16.04 48.4208 7.976L 48.4208 4.376C 48.4208 1.784 46.2607 -0.375999 43.6688 -0.375999C 41.0768 -0.375999 38.9167 1.784 38.9167 4.376L 38.9167 7.4C 38.9167 10.28 40.6448 11.864 42.8047 12.44C 43.2367 17.48 41.2207 20.648 36.0367 23.528C 35.3167 23.96 34.8847 24.68 34.8847 25.4Z"/>
</defs>
</svg>
