<svg width="46" height="35" viewBox="0 0 46 35" version="1.1" xmlns="http://www.w3.org/2000/svg" xmlns:xlink="http://www.w3.org/1999/xlink">
<title>&#226;&#128;&#156;</title>
<desc>Created using Figma</desc>
<g id="Canvas" transform="translate(372 -2912)">
<g id="&#226;&#128;&#156;">
<use xlink:href="#path0_fill" transform="matrix(0.917737 0.397188 -0.397188 0.917737 -395.641 2882)" fill="#FFFFFF"/>
</g>
</g>
<defs>
<path id="path0_fill" d="M 80.5128 12.928C 80.5128 11.488 79.3607 10.768 78.3528 10.768C 77.0567 10.768 73.4567 12.784 70.8648 15.376C 68.2728 17.968 66.9768 22.288 66.9768 30.352L 66.9768 33.952C 66.9768 36.544 69.1367 38.704 71.7287 38.704C 74.3207 38.704 76.4808 36.544 76.4808 33.952L 76.4808 30.928C 76.4808 28.048 74.7527 26.464 72.5927 25.888C 72.1607 20.848 74.1767 17.68 79.3607 14.8C 80.0807 14.368 80.5128 13.648 80.5128 12.928ZM 54.5928 12.928C 54.5928 11.488 53.4408 10.768 52.4327 10.768C 51.1367 10.768 47.5367 12.784 44.9447 15.376C 42.3528 17.968 41.0568 22.288 41.0568 30.352L 41.0568 33.952C 41.0568 36.544 43.2168 38.704 45.8088 38.704C 48.4008 38.704 50.5607 36.544 50.5607 33.952L 50.5607 30.928C 50.5607 28.048 48.8328 26.464 46.6728 25.888C 46.2407 20.848 48.2567 17.68 53.4408 14.8C 54.1608 14.368 54.5928 13.648 54.5928 12.928Z"/>
</defs>
</svg>
